<svg width="32" height="12" viewBox="0 0 32 12" fill="none" xmlns="http://www.w3.org/2000/svg">
<path fill-rule="evenodd" clip-rule="evenodd" d="M19.8512 8.75265C17.9986 10.2189 15.3039 11 12.9797 11C9.72352 11 6.80423 9.7141 4.58107 7.57487C4.41265 7.40662 4.55861 7.17828 4.77194 7.31048C7.16352 8.80072 10.1165 9.69006 13.1705 9.69006C15.2253 9.69006 17.4933 9.23337 19.5818 8.28394C19.8962 8.15174 20.1544 8.51229 19.8512 8.75265Z" fill="white" stroke="white" stroke-width="0.224561"/>
<path fill-rule="evenodd" clip-rule="evenodd" d="M20.626 7.80319C20.3902 7.47871 19.054 7.64696 18.459 7.73109C18.2793 7.75512 18.2456 7.58687 18.414 7.46669C19.4807 6.66148 21.2211 6.90184 21.4232 7.16624C21.6253 7.43063 21.367 9.30546 20.3677 10.1948C20.2105 10.327 20.0646 10.2549 20.1319 10.0746C20.3565 9.47371 20.8618 8.1397 20.626 7.80319Z" fill="white" stroke="white" stroke-width="0.224561"/>
<path fill-rule="evenodd" clip-rule="evenodd" d="M18.4926 1.81818V1.037C18.4926 0.91682 18.5712 0.84471 18.6723 0.84471H21.9284C22.0295 0.84471 22.1193 0.928838 22.1193 1.037V1.698C22.1193 1.80616 22.0295 1.95038 21.8723 2.19074L20.1881 4.76261C20.8168 4.75059 21.4793 4.84674 22.0407 5.18324C22.1642 5.25535 22.1979 5.37553 22.2091 5.4837V6.31294C22.2091 6.43312 22.0968 6.56532 21.9733 6.49321C20.974 5.92836 19.6379 5.86827 18.5375 6.50523C18.4253 6.56532 18.3018 6.44514 18.3018 6.32496V5.53177C18.3018 5.41159 18.3018 5.19526 18.4253 5.00297L20.3789 2.01047H18.6835C18.5825 2.01047 18.4926 1.92634 18.4926 1.81818ZM6.62456 6.66147H5.63649C5.54667 6.64945 5.46807 6.57734 5.45684 6.4812V1.04902C5.45684 0.940857 5.54667 0.856729 5.64772 0.856729H6.56842C6.66947 0.856729 6.73684 0.940856 6.74807 1.037V1.74607H6.77053C7.00632 1.06104 7.46667 0.736548 8.07298 0.736548C8.69053 0.736548 9.08351 1.06104 9.35298 1.74607C9.58877 1.06104 10.1389 0.736548 10.7228 0.736548C11.1382 0.736548 11.5874 0.91682 11.8681 1.33745C12.1825 1.79414 12.1151 2.45514 12.1151 3.04402V6.4812C12.1151 6.58936 12.0253 6.67349 11.9242 6.67349H10.9474C10.8463 6.66147 10.7677 6.57734 10.7677 6.4812V3.59685C10.7677 3.36851 10.7902 2.79164 10.7453 2.57532C10.6667 2.21477 10.4533 2.10661 10.1614 2.10661C9.92561 2.10661 9.66737 2.27487 9.56632 2.55128C9.46526 2.8277 9.47649 3.28438 9.47649 3.59685V6.4812C9.47649 6.58936 9.38667 6.67349 9.28561 6.67349H8.29754C8.19649 6.66147 8.1179 6.57734 8.1179 6.4812V3.59685C8.1179 2.99595 8.20772 2.09459 7.51158 2.09459C6.80421 2.09459 6.82667 2.95989 6.82667 3.59685V6.4812C6.81544 6.57734 6.73684 6.66147 6.62456 6.66147ZM24.9263 0.736548C26.3972 0.736548 27.1944 2.08257 27.1944 3.80116C27.1944 5.45966 26.3186 6.78165 24.9263 6.78165C23.4891 6.78165 22.7032 5.43562 22.7032 3.75309C22.6919 2.05854 23.4891 0.736548 24.9263 0.736548ZM24.9263 1.85423C24.1965 1.85423 24.1516 2.92384 24.1516 3.58484C24.1516 4.24583 24.1404 5.66397 24.9151 5.66397C25.6786 5.66397 25.7235 4.52225 25.7235 3.8252C25.7235 3.36851 25.7011 2.81568 25.5775 2.38303C25.4653 1.99845 25.2407 1.85423 24.9263 1.85423ZM29.0919 6.66147H28.1039C28.0028 6.64945 27.9242 6.56533 27.9242 6.46918V1.02498C27.9354 0.928837 28.014 0.84471 28.1151 0.84471H29.0358C29.1256 0.84471 29.193 0.916821 29.2154 1.00095V1.8302H29.2379C29.5186 1.08507 29.9004 0.736548 30.5853 0.736548C31.0232 0.736548 31.4611 0.9048 31.7418 1.37351C32 1.80616 32 2.53926 32 3.06806V6.49321C31.9888 6.58936 31.9102 6.66147 31.8091 6.66147H30.8211C30.7312 6.64945 30.6526 6.57734 30.6414 6.49321V3.53676C30.6414 2.93586 30.7088 2.07056 30.0239 2.07056C29.7881 2.07056 29.5635 2.23881 29.4512 2.50321C29.3165 2.83972 29.294 3.1642 29.294 3.53676V6.46918C29.2828 6.57734 29.193 6.66147 29.0919 6.66147ZM15.8989 4.06556C15.8989 4.47418 15.9102 4.8227 15.7193 5.19526C15.5621 5.49571 15.3151 5.67599 15.0344 5.67599C14.6526 5.67599 14.4281 5.36352 14.4281 4.90683C14.4281 4.00547 15.1804 3.83721 15.8989 3.83721V4.06556ZM16.8982 6.64945C16.8309 6.70954 16.7411 6.72156 16.6625 6.67349C16.3368 6.38505 16.2695 6.24084 16.0898 5.96442C15.5509 6.55331 15.1579 6.73358 14.4618 6.73358C13.6309 6.73358 12.9797 6.18075 12.9797 5.0871C12.9797 4.2218 13.4175 3.64493 14.0351 3.35649C14.574 3.10411 15.3263 3.05604 15.8989 2.98393V2.85173C15.8989 2.59935 15.9214 2.2989 15.7754 2.08258C15.6519 1.89029 15.4274 1.80616 15.2253 1.80616C14.8435 1.80616 14.5067 2.01047 14.4281 2.44312C14.4056 2.53926 14.3495 2.63541 14.2596 2.63541L13.3053 2.52724C13.2267 2.50321 13.1368 2.44312 13.1593 2.31092C13.3839 1.06104 14.4281 0.688477 15.3712 0.688477C15.854 0.688477 16.4828 0.820675 16.8646 1.21727C17.3474 1.698 17.3025 2.34697 17.3025 3.04402V4.6905C17.3025 5.18324 17.4933 5.39957 17.673 5.67599C17.7404 5.77213 17.7516 5.89231 17.673 5.9524C17.4596 6.13267 17.1004 6.46918 16.8982 6.64945ZM2.93053 4.06556C2.93053 4.47418 2.94175 4.8227 2.75088 5.19526C2.59368 5.49571 2.34667 5.67599 2.06596 5.67599C1.68421 5.67599 1.45965 5.36352 1.45965 4.90683C1.45965 4.00547 2.21193 3.83721 2.93053 3.83721V4.06556ZM3.9186 6.64945C3.85123 6.70954 3.7614 6.72156 3.68281 6.67349C3.35719 6.38505 3.28982 6.24084 3.11018 5.96442C2.57123 6.55331 2.17825 6.73358 1.4821 6.73358C0.651228 6.73358 0 6.18075 0 5.0871C0 4.2218 0.437894 3.64493 1.05544 3.35649C1.59439 3.10411 2.34667 3.05604 2.9193 2.98393V2.85173C2.9193 2.59935 2.94175 2.2989 2.79579 2.08258C2.67228 1.89029 2.44772 1.80616 2.24561 1.80616C1.86386 1.80616 1.52702 2.01047 1.44842 2.44312C1.42596 2.53926 1.36982 2.63541 1.28 2.63541L0.325613 2.52724C0.247017 2.50321 0.157194 2.44312 0.17965 2.31092C0.404211 1.06104 1.44842 0.688477 2.39158 0.688477C2.87439 0.688477 3.50316 0.820675 3.88491 1.21727C4.36772 1.698 4.32281 2.34697 4.32281 3.04402V4.6905C4.32281 5.18324 4.51368 5.39957 4.69333 5.67599C4.7607 5.77213 4.77193 5.89231 4.69333 5.9524C4.48 6.13267 4.1207 6.46918 3.9186 6.64945Z" fill="white" stroke="white" stroke-width="0.224561"/>
</svg>
