<svg width="33" height="34" viewBox="0 0 33 34" fill="none" xmlns="http://www.w3.org/2000/svg">
<path d="M16.5 31.4375C8.53875 31.4375 2.0625 24.9613 2.0625 17C2.0625 12.8771 5.41613 9.52344 9.53906 9.52344C13.662 9.52344 17.0156 12.8771 17.0156 17C17.0156 20.5537 19.9072 23.4453 23.4609 23.4453C27.0146 23.4453 29.9062 20.5537 29.9062 17C29.9062 9.608 23.892 3.59375 16.5 3.59375C12.4338 3.59375 8.63363 5.40875 6.07303 8.57366C5.89462 8.79434 5.56772 8.82837 5.34806 8.64997C5.12634 8.47053 5.09231 8.14672 5.27072 7.925C8.02828 4.51672 12.1203 2.5625 16.5 2.5625C24.4613 2.5625 30.9375 9.03875 30.9375 17C30.9375 21.1229 27.5839 24.4766 23.4609 24.4766C19.338 24.4766 15.9844 21.1229 15.9844 17C15.9844 13.4463 13.0928 10.5547 9.53906 10.5547C5.98537 10.5547 3.09375 13.4463 3.09375 17C3.09375 24.392 9.108 30.4062 16.5 30.4062C20.5662 30.4062 24.3674 28.5912 26.928 25.4263C27.1064 25.2046 27.4323 25.1706 27.653 25.35C27.8747 25.5295 27.9087 25.8533 27.7293 26.075C24.9717 29.4822 20.8797 31.4375 16.5 31.4375Z" fill="#5E8C61"/>
<path d="M8.76562 18.5469C7.62816 18.5469 6.70312 17.6218 6.70312 16.4844C6.70312 15.3469 7.62816 14.4219 8.76562 14.4219C9.90309 14.4219 10.8281 15.3469 10.8281 16.4844C10.8281 17.6218 9.90309 18.5469 8.76562 18.5469ZM8.76562 15.4531C8.19741 15.4531 7.73438 15.9162 7.73438 16.4844C7.73438 17.0526 8.19741 17.5156 8.76562 17.5156C9.33384 17.5156 9.79688 17.0526 9.79688 16.4844C9.79688 15.9162 9.33384 15.4531 8.76562 15.4531Z" fill="#5E8C61"/>
<path d="M24.2344 18.5469C23.0969 18.5469 22.1719 17.6218 22.1719 16.4844C22.1719 15.3469 23.0969 14.4219 24.2344 14.4219C25.3718 14.4219 26.2969 15.3469 26.2969 16.4844C26.2969 17.6218 25.3718 18.5469 24.2344 18.5469ZM24.2344 15.4531C23.6662 15.4531 23.2031 15.9162 23.2031 16.4844C23.2031 17.0526 23.6662 17.5156 24.2344 17.5156C24.8026 17.5156 25.2656 17.0526 25.2656 16.4844C25.2656 15.9162 24.8026 15.4531 24.2344 15.4531Z" fill="#5E8C61"/>
<path d="M16.5 31.4375C8.53875 31.4375 2.0625 24.9613 2.0625 17C2.0625 12.8771 5.41613 9.52344 9.53906 9.52344C13.662 9.52344 17.0156 12.8771 17.0156 17C17.0156 20.5537 19.9072 23.4453 23.4609 23.4453C27.0146 23.4453 29.9062 20.5537 29.9062 17C29.9062 9.608 23.892 3.59375 16.5 3.59375C12.4338 3.59375 8.63363 5.40875 6.07303 8.57366C5.89462 8.79434 5.56772 8.82837 5.34806 8.64997C5.12634 8.47053 5.09231 8.14672 5.27072 7.925C8.02828 4.51672 12.1203 2.5625 16.5 2.5625C24.4613 2.5625 30.9375 9.03875 30.9375 17C30.9375 21.1229 27.5839 24.4766 23.4609 24.4766C19.338 24.4766 15.9844 21.1229 15.9844 17C15.9844 13.4463 13.0928 10.5547 9.53906 10.5547C5.98537 10.5547 3.09375 13.4463 3.09375 17C3.09375 24.392 9.108 30.4062 16.5 30.4062C20.5662 30.4062 24.3674 28.5912 26.928 25.4263C27.1064 25.2046 27.4323 25.1706 27.653 25.35C27.8747 25.5295 27.9087 25.8533 27.7293 26.075C24.9717 29.4822 20.8797 31.4375 16.5 31.4375Z" fill="#5E8C61"/>
<path d="M8.76562 18.5469C7.62816 18.5469 6.70312 17.6218 6.70312 16.4844C6.70312 15.3469 7.62816 14.4219 8.76562 14.4219C9.90309 14.4219 10.8281 15.3469 10.8281 16.4844C10.8281 17.6218 9.90309 18.5469 8.76562 18.5469ZM8.76562 15.4531C8.19741 15.4531 7.73438 15.9162 7.73438 16.4844C7.73438 17.0526 8.19741 17.5156 8.76562 17.5156C9.33384 17.5156 9.79688 17.0526 9.79688 16.4844C9.79688 15.9162 9.33384 15.4531 8.76562 15.4531Z" fill="#5E8C61"/>
<path d="M24.2344 18.5469C23.0969 18.5469 22.1719 17.6218 22.1719 16.4844C22.1719 15.3469 23.0969 14.4219 24.2344 14.4219C25.3718 14.4219 26.2969 15.3469 26.2969 16.4844C26.2969 17.6218 25.3718 18.5469 24.2344 18.5469ZM24.2344 15.4531C23.6662 15.4531 23.2031 15.9162 23.2031 16.4844C23.2031 17.0526 23.6662 17.5156 24.2344 17.5156C24.8026 17.5156 25.2656 17.0526 25.2656 16.4844C25.2656 15.9162 24.8026 15.4531 24.2344 15.4531Z" fill="#5E8C61"/>
</svg>
