<svg width="33" height="34" viewBox="0 0 33 34" fill="none" xmlns="http://www.w3.org/2000/svg">
<path d="M30.8086 2.03015C30.0803 2.0482 29.294 2.1249 28.5592 2.26669C27.5279 2.46521 26.5998 2.80359 26.1164 3.1613C26.0713 3.30375 26.0584 3.49904 26.0648 3.63117C26.0648 3.76652 26.0842 3.91347 26.11 4.06171C26.9672 3.42298 28.0178 3.05689 29.0813 2.71078C28.1596 3.35982 27.3668 4.04173 26.6191 4.74041C27.1412 4.9705 27.76 4.97373 28.1596 4.69078H28.166C29.0297 4.06945 30.1834 3.03046 30.8086 2.03209V2.03015ZM11.608 2.26154C11.434 2.26154 11.2471 2.28087 11.0537 2.32406C10.9248 2.95505 11.0022 3.52933 11.2406 3.9863C10.6606 3.75814 9.96446 3.79617 9.25547 4.38978C9.68731 5.86125 10.9893 6.51673 12.3299 5.85222C12.3686 6.46066 12.3879 7.07425 12.3879 7.68656C11.969 7.22894 11.2793 6.81322 10.5639 6.83255C10.0611 6.85189 9.53907 7.0807 9.08145 7.66078C9.80332 9.01429 11.2084 9.38812 12.3814 8.47289C12.3686 9.13675 12.3363 9.80062 12.2848 10.4709C11.8916 9.92953 11.1891 9.4139 10.4092 9.42035C10.0611 9.42679 9.7002 9.53636 9.33926 9.79417C10.3705 10.0842 11.3115 10.4967 12.1559 11.051C12.4717 11.2508 12.6328 11.5602 12.7231 11.8631C12.8068 12.166 12.8262 12.4819 12.8197 12.8041C12.7939 13.4616 12.6393 14.1512 12.4072 14.7377L12.3234 14.9311L12.1365 15.0278C12.0076 15.0987 11.8594 15.1696 11.7176 15.2405C11.5822 16.0655 11.434 16.8969 11.2729 17.7348C10.3189 16.5746 9.3586 16.1493 8.41114 16.1428C5.98834 16.117 3.6184 18.7983 1.40637 18.8434C4.40151 19.0561 9.06211 16.001 10.6863 19.5911C11.8916 20.4869 13.1291 21.2153 14.3924 21.7696C14.4955 21.1637 14.6631 20.5256 14.8951 19.9584C15.0434 19.5975 15.2109 19.2623 15.4236 18.9787C15.6363 18.6952 15.8941 18.4373 16.2873 18.3407C16.3969 18.3084 16.5129 18.2827 16.6225 18.2569C16.2744 17.5801 16.3195 16.6713 16.732 15.9108C17.151 15.1309 17.9115 14.5895 18.6914 14.5315C19.4906 13.3133 20.3285 12.1274 21.2115 10.9608C21.8947 12.411 23.4029 12.6752 24.6469 11.6633C24.3311 10.4967 23.4867 10.1293 22.6811 10.1487C22.3201 10.1551 21.9656 10.2453 21.6627 10.3743C22.9324 8.7307 24.2924 7.1516 25.749 5.62019C25.2205 5.38687 25.1818 5.21091 25.0465 4.67853C23.5641 6.22476 22.1783 7.8348 20.8828 9.49125C20.8506 10.5161 20.2705 11.4377 19.2908 11.6311H19.2779C18.6527 12.5077 18.0469 13.3907 17.4668 14.293C17.615 13.3327 17.7633 12.3465 17.9438 11.3668C17.4926 11.0832 17.1316 10.6063 16.9318 10.052C16.3195 12.0178 15.8813 14.1061 15.3141 15.9108C15.2367 15.8979 15.1529 15.8914 15.0756 15.8914C14.0572 15.885 13.1613 16.768 12.9293 17.4319C13.7092 18.1022 14.5664 18.2311 15.2689 17.9217C15.0047 18.3922 14.734 18.8692 14.4762 19.3461C14.2441 19.243 14.0057 19.1914 13.7801 19.1914C13.0453 19.185 12.375 19.6491 11.969 20.1518C12.4137 18.0377 12.8133 15.9237 13.1033 13.816C14.2893 14.4155 15.5203 13.8869 16.0682 12.5528C15.6041 12.0694 15.1143 11.876 14.6502 11.8696C14.141 11.8631 13.6576 12.0887 13.2773 12.3916C13.3611 11.6633 13.4256 10.935 13.4707 10.2067C14.6824 11.3991 16.2486 11.0768 17.0221 9.62015C16.5645 9.04007 16.0424 8.81449 15.5397 8.79515C14.6631 8.76937 13.8381 9.39457 13.4836 9.96175C13.5223 9.2721 13.5481 8.5889 13.5481 7.9057C14.8693 8.52445 16.1391 7.86703 16.5645 6.41039C16.1004 6.02173 15.6428 5.87156 15.2238 5.878C14.5277 5.88832 13.9219 6.32595 13.5352 6.82611C13.5223 6.37171 13.4965 5.91732 13.4643 5.46421C14.9725 5.96115 16.1906 5.06074 16.3324 3.47841C15.0563 2.77394 14.0766 3.43072 13.5674 4.24154C13.4514 3.33339 12.8584 2.26283 11.608 2.26154ZM23.0807 3.15873C20.7088 3.53384 19.2328 4.98146 18.2016 6.89701L18.3563 6.85834C18.6979 6.79388 19.0266 6.82611 19.3231 6.93568C20.1094 5.40105 21.2695 4.0746 23.0807 3.15873ZM31.5949 7.26761C28.5398 11.644 24.4535 13.5067 20.4381 15.5305C20.7797 16.2073 20.7346 17.0967 20.3285 17.8508V17.8573C24.5695 15.2276 28.8879 12.7332 31.5949 7.26761ZM25.8135 7.55121C24.7951 7.53832 23.8992 8.43421 23.6672 9.09164C25.0143 10.2518 26.5869 9.79418 27.2314 8.23441C26.7674 7.75101 26.2775 7.55765 25.8135 7.55121ZM18.6592 7.98949C18.6334 7.99593 18.6076 7.99593 18.5818 8.00238C18.1758 8.07972 17.8084 8.65335 17.9566 9.4139C18.1049 10.1744 18.6656 10.5741 19.0652 10.4903C19.4713 10.4129 19.8387 9.83929 19.6904 9.07875C19.5486 8.36332 19.0588 7.97015 18.6592 7.98949ZM5.47723 10.4516C5.3812 10.4516 5.27872 10.458 5.18139 10.458C5.78661 12.0887 6.43758 13.4809 7.81172 14.3188H7.81817C8.7334 14.8989 9.82911 14.7377 10.7766 14.3768L8.04376 12.1145L11.4533 13.9192C11.55 13.3455 11.8852 12.5785 11.5371 12.0307H11.5307V12.0243C9.95157 10.9994 7.96641 10.4709 5.47723 10.4516ZM18.8139 15.6916C18.4594 15.7045 18.0275 15.9494 17.7504 16.4586C17.383 17.1418 17.5635 17.8057 17.9244 17.9991C18.4787 18.2375 19.0975 17.6768 19.3037 17.303C19.6711 16.6198 19.4906 15.9623 19.1297 15.7625C19.0395 15.711 18.9299 15.6916 18.8139 15.6916ZM18.6141 19.1914C18.5174 19.1914 18.4143 19.1914 18.3176 19.1979C17.7246 19.2237 17.1445 19.3139 16.5773 19.4621H16.5709C16.5773 19.4621 16.4742 19.5073 16.3518 19.6748C16.2293 19.8424 16.0875 20.0938 15.9715 20.3967C15.7975 20.8157 15.6621 21.3184 15.5719 21.7889L19.6969 21.1379L16.3518 22.4657C16.6998 22.9813 16.7965 23.194 16.8803 23.5743C17.4152 23.9159 17.9824 24.0705 18.6979 23.8965C20.4768 23.4776 21.8754 22.0274 23.3385 20.3194C21.6627 19.5524 20.1029 19.1786 18.6141 19.1914ZM9.7711 20.3452L9.19102 21.8211C11.2986 22.7493 13.0969 23.8256 14.8178 24.9084L15.6234 23.4518C13.5674 22.8202 11.6273 21.7567 9.7711 20.3452ZM8.95899 22.9877C7.61192 24.7473 5.9935 26.2748 4.1437 27.1707L4.65159 28.2149C6.79981 27.1707 8.57872 25.4369 10.0354 23.4969C9.68731 23.3229 9.32637 23.1489 8.95899 22.9877ZM10.2674 23.6129C8.74629 26.3264 7.28321 28.26 5.73311 31.0959L6.75469 31.6502C8.2629 28.8852 9.71954 26.9452 11.2986 24.1543C10.9635 23.9739 10.6154 23.7934 10.2674 23.6129ZM11.9561 24.5282C10.3705 26.958 9.23614 28.9432 8.11465 31.5084L9.17168 31.9725C10.2738 29.4588 11.376 27.5381 12.9486 25.1147C12.6199 24.9149 12.2912 24.7151 11.9561 24.5282ZM13.4385 25.4112C12.4459 27.0869 12.3363 29.085 12.1623 30.6061L13.3096 30.7414C13.4965 29.1817 13.6383 27.377 14.4246 26.0299L13.4385 25.4112Z" fill="#5E8C61"/>
</svg>
