<svg width="39" height="40" viewBox="0 0 39 40" fill="none" xmlns="http://www.w3.org/2000/svg">
<path d="M8.20123 22.2053C7.77278 22.2053 7.53946 22.0171 7.41863 21.859C7.29988 21.7039 7.17697 21.4289 7.26239 21.0024L9.15674 11.6599L7.96652 11.7313H7.95749C7.59848 11.7313 7.33808 11.6077 7.17489 11.3938C7.09921 11.2939 7.04606 11.1771 7.01946 11.0523C6.99287 10.9274 6.99354 10.7978 7.02142 10.6732C7.12559 10.157 7.63459 9.72763 8.17901 9.69601L10.9622 9.5291C11.0124 9.52545 11.0626 9.52349 11.1129 9.52322C11.215 9.52322 11.4851 9.52322 11.6566 9.74821C11.8316 9.97762 11.7726 10.2695 11.7532 10.3651L9.58381 21.0686C9.45395 21.7186 8.94564 22.1634 8.28803 22.2024L8.20123 22.2053ZM15.6613 20.7348C14.662 20.7348 13.8315 20.3385 13.2593 19.5885C12.4517 18.5304 12.2406 16.904 12.6496 14.8849C13.3663 11.3467 15.5717 8.86588 18.1369 8.7122C19.241 8.64676 20.1549 9.04455 20.7708 9.85115C21.5784 10.9092 21.7895 12.5357 21.3805 14.5547C20.6639 18.0914 18.4584 20.5723 15.8919 20.7267C15.8151 20.7323 15.7382 20.735 15.6613 20.7348ZM18.032 10.6276L17.9369 10.6305C16.5897 10.7122 15.4683 12.3246 14.937 14.9437C14.6051 16.5819 14.6725 17.8106 15.1259 18.4047C15.3322 18.6753 15.6238 18.8128 15.9932 18.8128L16.0905 18.8098C17.4376 18.7297 18.5584 17.1179 19.0889 14.4981C19.4209 12.8599 19.3542 11.6305 18.9014 11.0364C18.6959 10.7651 18.4028 10.6276 18.032 10.6276ZM26.081 19.5297C25.0817 19.5297 24.2498 19.1333 23.6769 18.3826C22.8693 17.3245 22.6582 15.6981 23.0672 13.679C23.7845 10.1401 25.99 7.66002 28.5552 7.50708C29.6683 7.4409 30.571 7.84016 31.187 8.64603C31.9946 9.7041 32.2057 11.3305 31.7967 13.3489C31.0807 16.8848 28.876 19.3657 26.3094 19.5223C26.2317 19.5282 26.156 19.5297 26.081 19.5297ZM28.4496 9.42175L28.3552 9.42469C27.0073 9.50631 25.8858 11.1188 25.3553 13.7371C25.0234 15.3761 25.0907 16.6054 25.5442 17.1988C25.7504 17.4694 26.0435 17.6069 26.4129 17.6069L26.5101 17.604C27.8566 17.5238 28.9781 15.9113 29.5086 13.2923C29.8412 11.6548 29.7745 10.4254 29.3211 9.8313C29.1142 9.55925 28.8211 9.42175 28.4496 9.42175ZM14.6398 32.5C14.3145 32.4998 13.9995 32.3787 13.7498 32.1579C13.5001 31.937 13.3315 31.6304 13.2735 31.2914C13.2154 30.9524 13.2714 30.6026 13.4319 30.303C13.5924 30.0033 13.8471 29.7728 14.1517 29.6515C14.3857 29.5589 19.984 27.3663 28.4121 26.6222C28.7771 26.5938 29.1379 26.7192 29.416 26.971C29.6942 27.2227 29.8673 27.5806 29.8977 27.9667C29.928 28.3529 29.8132 28.7361 29.5782 29.0331C29.3432 29.3302 29.007 29.517 28.6427 29.553C20.5944 30.2633 15.1808 32.3846 15.1266 32.4059C14.9669 32.4691 14.8016 32.5 14.6398 32.5ZM8.39081 28.0876C8.06661 28.0875 7.75267 27.9672 7.50339 27.7478C7.25411 27.5283 7.08519 27.2234 7.02592 26.8859C6.96664 26.5484 7.02073 26.1996 7.17883 25.8999C7.33692 25.6002 7.58905 25.3685 7.89152 25.245C8.2679 25.0913 17.2772 21.4759 30.5377 20.737C30.7201 20.7255 30.9029 20.7525 31.0754 20.8164C31.2479 20.8803 31.4067 20.9798 31.5426 21.1093C31.6784 21.2387 31.7887 21.3954 31.8669 21.5703C31.945 21.7452 31.9896 21.9348 31.9981 22.1281C32.0077 22.321 31.9814 22.514 31.9206 22.6961C31.8598 22.8782 31.7657 23.0459 31.6437 23.1895C31.5216 23.333 31.3741 23.4498 31.2095 23.533C31.0449 23.6162 30.8664 23.6643 30.6842 23.6744C17.8911 24.3876 8.9762 27.9545 8.88731 27.9905C8.72873 28.0545 8.56049 28.0873 8.39081 28.0876Z" fill="#5E8C61"/>
</svg>
