<svg width="33" height="33" viewBox="0 0 33 33" fill="none" xmlns="http://www.w3.org/2000/svg">
<path d="M14.8999 30.5586C10.7859 30.0907 7.08588 27.8523 4.76295 24.4262C3.93945 23.2116 3.56181 22.4252 3.00366 20.7637C2.56942 19.4708 2.5102 19.0675 2.44532 16.9597C2.38978 15.1556 2.43117 14.3532 2.62116 13.5428C3.81174 8.46765 7.23688 4.67147 12.0705 3.07026C18.7778 0.848184 26.1393 3.97046 29.1955 10.3338C30.2059 12.4371 30.5864 14.1535 30.5774 16.5668C30.5658 19.6686 29.8612 21.9312 28.074 24.6068C25.3318 28.712 19.9684 31.1349 14.8999 30.5586ZM19.2226 27.6291C21.5379 27.1157 24.1458 25.3783 25.6535 23.3445C27.2031 21.2542 27.9417 19.0225 27.9228 16.4881C27.9051 14.1253 27.3256 12.1285 26.1058 10.2277L25.6182 9.46778L23.3801 11.7019L21.1419 13.936L20.7885 13.1687C20.594 12.7466 20.4046 11.9767 20.3674 11.4582L20.2998 10.5151L21.8046 9.02488C22.6323 8.2053 23.3094 7.46256 23.3092 7.37441C23.3089 7.20233 22.3825 6.58877 21.3169 6.05488C19.2065 4.99793 15.894 4.71131 13.5152 5.37979C9.57832 6.48647 6.60499 9.42488 5.47833 13.3227C4.95117 15.1464 4.9151 17.644 5.39112 19.3619C5.75924 20.6901 6.47881 22.2624 7.02566 22.9327L7.41022 23.4044L8.018 22.8149L8.62578 22.2253L8.8235 22.9646C8.95614 23.4605 9.22238 23.8954 9.63233 24.2853C10.2315 24.8552 10.2375 24.8719 9.93878 25.1423C9.77123 25.2932 9.63414 25.4787 9.63414 25.5527C9.63414 25.8096 11.4138 26.8244 12.6651 27.2809C14.7449 28.0402 16.8625 28.1524 19.2226 27.6291ZM10.8059 23.0973C10.1418 22.433 10.2635 21.958 12.3849 16.9378L14.3498 12.2881V9.9477V7.60706H16.4718H18.5939V9.91493V12.223L19.3969 14.1198C19.8386 15.1631 20.7294 17.2544 21.3764 18.7674C22.7155 21.8986 22.827 22.5308 22.1433 23.1189L21.7201 23.4829H16.4559H11.1917L10.8059 23.0973ZM13.6312 21.9786C13.7671 21.8418 13.8798 21.542 13.8817 21.3105C13.8836 21.0795 14.025 20.581 14.196 20.2041C14.6149 19.281 14.593 18.8311 14.114 18.5171C13.762 18.2861 13.6842 18.2837 13.3674 18.4935C13.076 18.6892 12.5918 19.6726 12.0685 21.1335C11.9403 21.4918 12.5749 22.2232 13.0139 22.2232C13.2175 22.2232 13.4954 22.1148 13.6312 21.9786ZM15.2459 17.2737C15.6593 16.984 15.9854 16.0562 15.8556 15.5391C15.7044 14.9366 15.014 14.8432 14.5656 15.3646C14.0554 15.9579 13.9216 16.8091 14.2769 17.2018C14.6117 17.5716 14.8003 17.5867 15.2459 17.2737Z" fill="#5E8C61"/>
</svg>
