<svg width="33" height="34" viewBox="0 0 33 34" fill="none" xmlns="http://www.w3.org/2000/svg">
<path d="M29.8768 19.1804C28.875 18.8858 27.7553 18.8858 26.6946 19.2394L23.0411 20.4179C22.9821 20.1822 22.8053 19.8876 22.5107 19.5929C21.9214 18.9447 20.9786 18.5322 20.0357 18.5322H16.9125C16.7357 18.5322 16.5 18.4733 16.3821 18.3554C14.0839 16.4108 11.4321 17.2947 10.6661 17.6483C10.4893 17.7072 10.3125 17.8251 10.1946 17.9429L6.59998 20.9483C6.30534 20.6537 5.89284 20.4179 5.48034 20.359C4.94998 20.3001 4.41963 20.4179 3.9482 20.7715L2.59284 21.7733C1.70891 22.4804 1.53213 23.7179 2.18034 24.6608L6.89463 30.9072C7.2482 31.3197 7.71963 31.6144 8.24999 31.6733C8.36784 31.6733 8.42677 31.6733 8.54463 31.6733C8.95713 31.6733 9.42856 31.5554 9.78213 31.2608L11.1375 30.259C11.8446 29.7287 12.1393 28.7269 11.7857 27.9608L12.4928 27.4304C12.6696 27.3126 12.8464 27.2537 13.0232 27.2537L19.6821 27.1358C20.8607 27.1358 22.0393 26.7822 23.1 26.1929L29.9357 22.2447C30.2893 22.0679 31.35 21.3608 31.2321 20.4179C31.1732 19.8287 30.7018 19.4162 29.8768 19.1804ZM10.3714 29.3162L9.01606 30.3179C8.83927 30.4947 8.60356 30.5537 8.42677 30.5537C8.19106 30.4947 8.01427 30.3769 7.83749 30.2001L3.1232 23.9537C2.82856 23.6001 2.88748 23.0108 3.29998 22.7162L4.65534 21.7144C4.83213 21.5965 5.00891 21.5376 5.1857 21.5376C5.24463 21.5376 5.24463 21.5376 5.30356 21.5376C5.53927 21.5965 5.71606 21.6554 5.83391 21.8322L9.13391 26.1929L10.6071 28.0787C10.8428 28.4912 10.7839 29.0804 10.3714 29.3162ZM29.3464 21.184L22.5107 25.1322C21.6268 25.6037 20.6839 25.8983 19.6821 25.8983L12.9643 26.0162C12.4928 26.0162 12.0803 26.1929 11.7268 26.4287L11.1375 26.9001L9.78213 25.1322L7.30713 21.8322L10.9018 18.8269C10.9607 18.7679 11.0196 18.7679 11.0786 18.709C11.6678 18.4733 13.7893 17.7072 15.5571 19.2394C15.9107 19.534 16.3821 19.7108 16.8536 19.7108H19.9768C20.625 19.7108 21.2143 19.9465 21.6268 20.359C21.7446 20.5358 21.9214 20.7715 21.9214 20.9483C21.9214 21.0662 21.7446 21.4197 20.8018 21.8322H16.3232C15.9696 21.8322 15.7339 22.0679 15.7339 22.4215C15.7339 22.7751 15.9696 23.0108 16.3232 23.0108H21.0964L21.2143 22.9519C22.0982 22.5394 22.6286 22.1269 22.9232 21.6554L27.1071 20.359C27.9321 20.0644 28.8161 20.0644 29.5821 20.3001C29.9357 20.4179 30.0536 20.4769 30.1125 20.5358C29.9946 20.7126 29.6411 21.0072 29.3464 21.184Z" fill="#5E8C61"/>
<path d="M5.36248 22.9518L4.30176 23.7179C4.06605 23.8947 4.00712 24.3072 4.18391 24.5429C4.30176 24.7197 4.47855 24.7786 4.65534 24.7786C4.77319 24.7786 4.89105 24.7197 5.00891 24.6608L6.06962 23.8947C6.30534 23.7179 6.36426 23.3054 6.18748 23.0697C5.95176 22.7751 5.59819 22.7161 5.36248 22.9518Z" fill="#5E8C61"/>
<path d="M16.0286 8.75005C17.0303 9.57505 18.3857 9.75183 19.5053 9.75183C20.1536 9.75183 20.8018 9.69291 21.2143 9.57505V13.2286C19.0339 13.5233 17.325 15.2322 17.325 17.2358V17.825H26.5768V17.2358C26.5768 15.1143 24.6911 13.4054 22.3339 13.2286V8.98576C23.1589 9.33933 24.4553 9.75183 25.7518 9.75183C26.3411 9.75183 26.9303 9.69291 27.4607 9.45719C29.9357 8.45541 30.7607 4.97862 30.8196 4.80183C30.8786 4.56612 30.7607 4.33041 30.5839 4.15362C30.4661 4.09469 27.4018 2.20898 24.9268 3.21076C23.6303 3.74112 22.6286 4.97862 22.0393 6.03933C21.8036 5.09648 21.2732 4.03576 20.3303 3.32862C18.15 1.56076 14.5553 2.56255 14.3786 2.62148C14.1428 2.68041 13.9661 2.91612 13.9661 3.15183C13.9661 3.32862 13.7893 7.04112 16.0286 8.75005ZM25.3393 16.7054H18.5625C18.9161 15.409 20.2714 14.4072 21.9214 14.4072C23.6303 14.4072 25.0446 15.409 25.3393 16.7054ZM25.3982 4.38933C26.8714 3.80005 28.8161 4.62505 29.5821 5.03755C29.2875 5.92148 28.5214 7.80719 27.0482 8.45541C25.8696 8.92684 24.3964 8.57326 23.3357 8.16076L27.5786 6.51076C27.8143 6.39291 27.9321 6.21612 27.9321 5.98041C27.9321 5.92148 27.9321 5.86255 27.8732 5.74469C27.7553 5.45005 27.4018 5.27326 27.1071 5.39112L22.8643 7.04112C23.3946 6.03934 24.2196 4.86076 25.3982 4.38933ZM19.6232 4.21255C20.6839 5.03755 21.0375 6.56969 21.1553 7.63041L17.4428 4.68398C17.2071 4.50719 16.7946 4.50719 16.6178 4.80183C16.5589 4.91969 16.5 5.03755 16.5 5.15541C16.5 5.33219 16.5589 5.50898 16.7357 5.62683L20.4482 8.57326C19.3875 8.69112 17.8553 8.69112 16.7946 7.86612C15.4393 6.80541 15.2625 4.62505 15.2036 3.68219C16.0875 3.44648 18.2678 3.15183 19.6232 4.21255Z" fill="#5E8C61"/>
</svg>
