<svg width="31" height="31" viewBox="0 0 31 31" fill="none" xmlns="http://www.w3.org/2000/svg">
<path d="M20 23.2377C19.4477 23.6519 18.6642 23.54 18.25 22.9877C17.8357 22.4354 17.9477 21.6519 18.5 21.2377C20.4549 19.7715 21.5762 18.3459 22.2161 17.1007C21.8673 17.1902 21.5017 17.2378 21.125 17.2378C18.7087 17.2378 16.75 15.279 16.75 12.8628C16.75 10.4465 18.7087 8.48779 21.125 8.48779C23.5171 8.48779 25.4607 10.4075 25.4994 12.7904C25.6122 13.8717 25.5957 15.4667 24.8649 17.3082C24.1181 19.1901 22.6595 21.2431 20 23.2377ZM8.75 23.2377C8.19775 23.6519 7.41425 23.54 7 22.9877C6.58575 22.4354 6.69775 21.6519 7.25 21.2377C9.205 19.7715 10.3261 18.3459 10.9661 17.1007C10.6174 17.1902 10.2517 17.2378 9.875 17.2378C7.45875 17.2378 5.5 15.279 5.5 12.8628C5.5 10.4465 7.45875 8.48779 9.875 8.48779C12.2671 8.48779 14.2107 10.4075 14.2494 12.7904C14.3621 13.8717 14.3457 15.4667 13.615 17.3082C12.8681 19.1901 11.4095 21.2431 8.75 23.2377Z" fill="#D1A054"/>
</svg>
