<svg width="31" height="31" viewBox="0 0 31 31" fill="none" xmlns="http://www.w3.org/2000/svg">
<path d="M11 8.73787C11.5523 8.32366 12.3358 8.43558 12.75 8.98786C13.1643 9.54014 13.0523 10.3236 12.5 10.7379C10.5451 12.2041 9.42384 13.6297 8.7839 14.8749C9.13269 14.7854 9.49829 14.7378 9.875 14.7378C12.2913 14.7378 14.25 16.6965 14.25 19.1128C14.25 21.529 12.2913 23.4878 9.875 23.4878C7.48294 23.4878 5.53925 21.568 5.50059 19.1852C5.38784 18.1039 5.4043 16.5089 6.13505 14.6674C6.88185 12.7855 8.34053 10.7325 11 8.73787ZM22.25 8.73787C22.8022 8.32366 23.5858 8.43558 24 8.98786C24.4142 9.54014 24.3023 10.3236 23.75 10.7379C21.795 12.2041 20.6739 13.6297 20.0339 14.8749C20.3826 14.7854 20.7483 14.7378 21.125 14.7378C23.5413 14.7378 25.5 16.6965 25.5 19.1128C25.5 21.529 23.5413 23.4878 21.125 23.4878C18.7329 23.4878 16.7893 21.568 16.7506 19.1852C16.6379 18.1039 16.6543 16.5089 17.385 14.6674C18.1319 12.7855 19.5905 10.7325 22.25 8.73787Z" fill="#D1A054"/>
</svg>
