<svg width="32" height="32" viewBox="0 0 32 32" fill="none" xmlns="http://www.w3.org/2000/svg">
<path d="M8.0192 26.6667C9.5424 26.6667 11.04 26.0097 12.1397 24.9355C13.2427 23.8614 13.8667 22.4129 13.8667 20.8022C13.8667 19.3195 13.2096 17.951 12.4459 16.7851C11.6843 15.6225 10.784 14.6198 10.0352 13.5606C9.60213 12.9494 9.21813 12.319 8.9472 11.6566C8.67413 10.9953 8.5152 10.2838 8.53333 9.60221C8.56747 8.29767 9.30987 7.01234 10.4171 6.32114C10.8939 6.02461 10.6165 5.23314 10.0352 5.34407C7.21173 5.87741 4.60267 7.42407 2.78187 9.64807C0.964267 11.8721 0 14.7254 0 17.6001C0 19.7334 0.682667 22.0662 2.096 23.8166C2.8032 24.6913 3.6896 25.4305 4.70933 25.9361C5.72693 26.4417 6.8704 26.6667 8.0192 26.6667ZM7.9808 25.6001C7.0208 25.6001 6.05013 25.4102 5.18293 24.9793C4.3136 24.5483 3.54027 23.9126 2.92373 23.1478C1.69173 21.6214 1.06667 19.7057 1.06667 17.6001C1.06667 14.9846 1.952 12.3499 3.60853 10.3254C4.7968 8.87261 6.42453 7.88594 8.1664 7.17874C7.74187 7.90621 7.488 8.74674 7.46667 9.60007C7.44533 10.4641 7.6448 11.2918 7.96053 12.0609C8.27627 12.8267 8.704 13.5243 9.16587 14.1729C9.95947 15.2971 10.8491 16.2955 11.552 17.3675C12.2528 18.4374 12.8 19.6097 12.8 20.799C12.8 22.0342 12.288 23.2993 11.3963 24.1697C10.5003 25.0443 9.2448 25.5969 7.9808 25.5969V25.6001ZM26.1525 26.6667C27.6757 26.6667 29.1733 26.0097 30.2731 24.9355C31.376 23.8614 32 22.4107 32 20.8001C32 19.3174 31.3429 17.9521 30.5792 16.7851C29.8176 15.6225 28.9173 14.6198 28.1685 13.5606C27.7355 12.9494 27.3515 12.319 27.0805 11.6566C26.8075 10.9953 26.6485 10.2838 26.6667 9.60221C26.7008 8.29767 27.4432 7.01234 28.5504 6.32114C29.0272 6.02461 28.7499 5.23314 28.1685 5.34407C25.3451 5.87741 22.736 7.42407 20.9152 9.64807C19.0976 11.8721 18.1333 14.7286 18.1333 17.6022C18.1333 19.7355 18.816 22.0662 20.2293 23.8166C20.9365 24.6913 21.8229 25.4305 22.8427 25.9361C23.8603 26.4417 25.0037 26.6667 26.1525 26.6667ZM26.1141 25.6001C25.1541 25.6001 24.1835 25.4102 23.3163 24.9793C22.4469 24.5483 21.6736 23.9126 21.0571 23.1478C19.8251 21.6214 19.2 19.7078 19.2 17.6033C19.2 14.9878 20.0853 12.351 21.7419 10.3265C22.9301 8.87367 24.5579 7.88701 26.2997 7.17981C25.8752 7.90621 25.6213 8.74674 25.6 9.60007C25.5787 10.4641 25.7781 11.2918 26.0939 12.0609C26.4096 12.8267 26.8373 13.5243 27.2992 14.1729C28.0928 15.2971 28.9824 16.2955 29.6853 17.3675C30.3861 18.4374 30.9333 19.6075 30.9333 20.7969C30.9333 22.0321 30.4213 23.2993 29.5296 24.1697C28.6336 25.0443 27.3781 25.5969 26.1141 25.5969V25.6001Z" fill="#5E8C61"/>
</svg>
